<svg width="60" height="60" viewBox="0 0 60 60" fill="none" xmlns="http://www.w3.org/2000/svg">
<circle cx="30" cy="30" r="30" fill="#EB0E0B" fill-opacity="0.1"/>
<path d="M31.0001 26.9986C31.0001 27.5509 30.5523 27.9986 30.0001 27.9986C29.4478 27.9986 29.0001 27.5509 29.0001 26.9986C29.0001 26.4463 29.4478 25.9986 30.0001 25.9986C30.5523 25.9986 31.0001 26.4463 31.0001 26.9986Z" fill="#EB0E0B"/>
<path d="M30.0001 29.7486C30.4143 29.7486 30.7501 30.0844 30.7501 30.4986V35.4986C30.7501 35.9128 30.4143 36.2486 30.0001 36.2486C29.5858 36.2486 29.2501 35.9128 29.2501 35.4986V30.4986C29.2501 30.0844 29.5858 29.7486 30.0001 29.7486Z" fill="#EB0E0B"/>
<path fill-rule="evenodd" clip-rule="evenodd" d="M32.2704 21.9912C31.1784 20.3936 28.8216 20.3935 27.7297 21.9912L27.2978 22.6232C24.5917 26.5824 22.2667 30.789 20.354 35.1867L20.2638 35.3941C19.5897 36.9439 20.6081 38.7036 22.2877 38.8913C27.4133 39.4641 32.5868 39.4641 37.7124 38.8913C39.392 38.7036 40.4103 36.9438 39.7363 35.3941L39.6461 35.1867C37.7333 30.789 35.4084 26.5824 32.7023 22.6232L32.2704 21.9912ZM28.9681 22.8376C29.4644 22.1114 30.5357 22.1114 31.032 22.8376L31.4639 23.4696C34.1165 27.3506 36.3956 31.4741 38.2705 35.7849L38.3608 35.9924C38.6322 36.6164 38.2221 37.325 37.5458 37.4006C32.5309 37.9611 27.4692 37.9611 22.4543 37.4006C21.778 37.325 21.3679 36.6164 21.6393 35.9924L21.7295 35.7849C23.6045 31.4741 25.8835 27.3506 28.5361 23.4696L28.9681 22.8376Z" fill="#EB0E0B"/>
</svg>
